<?xml version="1.0" encoding="UTF-8" standalone="no"?>
<!DOCTYPE svg PUBLIC "-//W3C//DTD SVG 1.1//EN" "http://www.w3.org/Graphics/SVG/1.1/DTD/svg11.dtd">
<svg xmlns="http://www.w3.org/2000/svg" version="1.1" viewBox="0 0 512 512">
<g stroke-width="2.00" fill="none" stroke-linecap="butt">
<path stroke="#7c5b16" vector-effect="non-scaling-stroke" d="
  M 74.96 124.08
  A 0.37 0.37 0.0 0 0 74.96 124.72
  L 256.89 230.46
  A 0.37 0.37 0.0 0 0 257.27 230.46
  L 436.39 127.05
  A 0.37 0.37 0.0 0 0 436.39 126.41
  L 254.46 20.68
  A 0.37 0.37 0.0 0 0 254.08 20.68
  L 74.96 124.08"
/>
<path stroke="#166370" vector-effect="non-scaling-stroke" d="
  M 247.48 247.25
  A 0.31 0.31 0.0 0 0 247.33 246.98
  L 65.40 141.24
  A 0.31 0.31 0.0 0 0 64.93 141.51
  L 65.57 379.88
  A 0.31 0.31 0.0 0 0 65.72 380.15
  L 247.69 485.87
  A 0.31 0.31 0.0 0 0 248.16 485.60
  L 247.48 247.25"
/>
<path stroke="#808080" vector-effect="non-scaling-stroke" d="
  M 348.70 395.91
  C 341.14 400.25 333.35 396.12 333.32 387.24
  Q 333.15 323.66 332.94 260.05
  C 332.93 255.41 333.52 252.49 337.26 249.99
  Q 343.61 245.76 350.25 241.95
  Q 398.14 214.47 446.00 186.84
  Q 446.50 186.55 446.50 185.98
  L 446.50 144.09
  Q 446.50 143.26 445.79 143.68
  L 267.10 246.82
  Q 266.58 247.12 266.58 247.72
  L 267.27 485.87
  A 0.24 0.24 0.0 0 0 267.63 486.08
  Q 357.15 434.45 446.55 382.78
  C 447.72 382.10 446.99 380.36 446.99 379.40
  Q 447.01 359.48 447.00 339.72
  A 0.30 0.30 0.0 0 0 446.55 339.47
  Q 397.66 367.81 348.70 395.91"
/>
<path stroke="#7c5b16" vector-effect="non-scaling-stroke" d="
  M 352.32 371.32
  A 0.32 0.32 0.0 0 0 352.80 371.59
  L 437.04 322.95
  A 0.32 0.32 0.0 0 0 437.04 322.40
  L 352.60 273.41
  A 0.32 0.32 0.0 0 0 352.11 273.69
  L 352.32 371.32"
/>
</g>
<path fill="#000000" d="
  M 253.06 0.00
  L 255.56 0.00
  Q 259.75 1.71 268.32 6.68
  Q 363.88 62.16 459.40 117.73
  C 462.79 119.70 465.52 122.26 465.51 126.06
  Q 465.38 157.25 465.71 188.43
  C 465.76 193.46 465.19 197.75 460.95 200.20
  Q 412.17 228.46 363.21 256.63
  Q 362.46 257.06 363.21 257.50
  Q 411.48 285.47 460.11 313.82
  C 463.23 315.64 465.90 317.78 465.93 321.25
  Q 466.20 353.88 466.46 386.49
  Q 466.51 393.38 460.71 396.73
  Q 365.12 451.89 269.52 507.03
  Q 262.73 510.95 258.44 512.00
  L 255.94 512.00
  Q 254.36 511.52 252.95 510.71
  Q 152.65 452.72 52.50 394.50
  Q 46.42 390.97 46.41 384.50
  Q 46.09 254.85 45.78 125.19
  C 45.78 121.92 46.85 118.31 49.53 116.76
  Q 149.60 58.93 249.71 1.17
  C 250.74 0.57 251.94 0.40 253.06 0.00
  Z
  M 74.96 124.08
  A 0.37 0.37 0.0 0 0 74.96 124.72
  L 256.89 230.46
  A 0.37 0.37 0.0 0 0 257.27 230.46
  L 436.39 127.05
  A 0.37 0.37 0.0 0 0 436.39 126.41
  L 254.46 20.68
  A 0.37 0.37 0.0 0 0 254.08 20.68
  L 74.96 124.08
  Z
  M 247.48 247.25
  A 0.31 0.31 0.0 0 0 247.33 246.98
  L 65.40 141.24
  A 0.31 0.31 0.0 0 0 64.93 141.51
  L 65.57 379.88
  A 0.31 0.31 0.0 0 0 65.72 380.15
  L 247.69 485.87
  A 0.31 0.31 0.0 0 0 248.16 485.60
  L 247.48 247.25
  Z
  M 348.70 395.91
  C 341.14 400.25 333.35 396.12 333.32 387.24
  Q 333.15 323.66 332.94 260.05
  C 332.93 255.41 333.52 252.49 337.26 249.99
  Q 343.61 245.76 350.25 241.95
  Q 398.14 214.47 446.00 186.84
  Q 446.50 186.55 446.50 185.98
  L 446.50 144.09
  Q 446.50 143.26 445.79 143.68
  L 267.10 246.82
  Q 266.58 247.12 266.58 247.72
  L 267.27 485.87
  A 0.24 0.24 0.0 0 0 267.63 486.08
  Q 357.15 434.45 446.55 382.78
  C 447.72 382.10 446.99 380.36 446.99 379.40
  Q 447.01 359.48 447.00 339.72
  A 0.30 0.30 0.0 0 0 446.55 339.47
  Q 397.66 367.81 348.70 395.91
  Z
  M 352.32 371.32
  A 0.32 0.32 0.0 0 0 352.80 371.59
  L 437.04 322.95
  A 0.32 0.32 0.0 0 0 437.04 322.40
  L 352.60 273.41
  A 0.32 0.32 0.0 0 0 352.11 273.69
  L 352.32 371.32
  Z"
/>
<path fill="#f7b52c" d="
  M 74.96 124.08
  L 254.08 20.68
  A 0.37 0.37 0.0 0 1 254.46 20.68
  L 436.39 126.41
  A 0.37 0.37 0.0 0 1 436.39 127.05
  L 257.27 230.46
  A 0.37 0.37 0.0 0 1 256.89 230.46
  L 74.96 124.72
  A 0.37 0.37 0.0 0 1 74.96 124.08
  Z"
/>
<path fill="#2cc5e0" d="
  M 247.48 247.25
  L 248.16 485.60
  A 0.31 0.31 0.0 0 1 247.69 485.87
  L 65.72 380.15
  A 0.31 0.31 0.0 0 1 65.57 379.88
  L 64.93 141.51
  A 0.31 0.31 0.0 0 1 65.40 141.24
  L 247.33 246.98
  A 0.31 0.31 0.0 0 1 247.48 247.25
  Z"
/>
<path fill="#ffffff" d="
  M 333.32 387.24
  C 333.35 396.12 341.14 400.25 348.70 395.91
  Q 397.66 367.81 446.55 339.47
  A 0.30 0.30 0.0 0 1 447.00 339.72
  Q 447.01 359.48 446.99 379.40
  C 446.99 380.36 447.72 382.10 446.55 382.78
  Q 357.15 434.45 267.63 486.08
  A 0.24 0.24 0.0 0 1 267.27 485.87
  L 266.58 247.72
  Q 266.58 247.12 267.10 246.82
  L 445.79 143.68
  Q 446.50 143.26 446.50 144.09
  L 446.50 185.98
  Q 446.50 186.55 446.00 186.84
  Q 398.14 214.47 350.25 241.95
  Q 343.61 245.76 337.26 249.99
  C 333.52 252.49 332.93 255.41 332.94 260.05
  Q 333.15 323.66 333.32 387.24
  Z"
/>
<path fill="#f7b52c" d="
  M 352.32 371.32
  L 352.11 273.69
  A 0.32 0.32 0.0 0 1 352.60 273.41
  L 437.04 322.40
  A 0.32 0.32 0.0 0 1 437.04 322.95
  L 352.80 371.59
  A 0.32 0.32 0.0 0 1 352.32 371.32
  Z"
/>
</svg>
